<svg xmlns="http://www.w3.org/2000/svg" width="1346.457" height="566.929" viewBox="0 0 1346.457 566.929"><path fill="none" d="M0 0h1346.457v566.929H0z"/><path d="M906.641 252.497c-8.201 0-14 4.1-17 10.1l-.102-.099c.5-2.7.7-6.701.7-9.1-6.6-.2-14.2.099-20.5.899v7.701c2.9.2 6.3.6 8.7 1V303.2h12.5v-24.002c0-8.9 5.101-16.3 11.701-16.3 4.9 0 6.4 3.2 6.4 8.5V303.2h12.402v-34.902c0-8.7-3.6-15.801-14.8-15.801zm-127.3-17.201c-8.3 0-16.6.4-22 .4h-8.401v7.8c2.6.6 5.7 1.1 8.7 1.3V294.1c-3 .2-6.1.7-8.7 1.3v7.8h8.7c3.3 0 11.7.4 18.701.4 22.001 0 37.202-12.101 37.202-35.302 0-23.602-13.3-33.002-34.202-33.002zm-1.8 57.403c-2.5 0-5.3-.1-7.2-.4v-46.103c2.1-.199 5.1-.3 8.1-.3 15.601 0 21.502 8.702 21.502 23.402 0 16.201-9.301 23.401-22.402 23.401zm66.699-40.202c-14.702 0-23.402 11.4-23.402 26.302 0 17.5 8.7 25.401 24.501 25.401 5.9 0 12.201-1.1 17.802-3l-1.3-9.3c-5.1 1.7-10.101 2.6-15 2.6-9.302 0-13.302-4.7-13.402-13.602h31.002s.4-3.6.4-7.3c0-11.8-6.1-21.101-20.601-21.101zm-10.7 20.001c.699-6.8 4.7-10.8 10.1-10.8 5.5 0 9 3.7 8.8 10.8h-18.9zm290.934-2.6c0-11-4.8-17.5-20.101-17.5-6.1 0-13.001 1.5-18.501 3.5l1.9 9.4c4.8-1.9 10.601-3.3 15.101-3.3 6.7 0 9 2.8 9 8.7v2.1c-17.4 0-28.802 5.6-28.802 17.302 0 8.1 5.3 14.1 14.201 14.1 7.501 0 13.601-4 16.001-9.6l.1.1c-.4 2.6-.5 5.6-.5 8.6 6.401.2 14-.1 20.302-.9v-7.7c-2.9-.2-6.301-.6-8.7-1v-23.802zm-12.601 12.601c0 5.9-4.2 12.1-10.6 12.1-3.8 0-6.1-2.6-6.1-6 0-4.3 3.6-7.6 16.7-7.6v1.5zm53.2-29.902c-17.5 0-27.101 11.5-27.101 28.301 0 15.202 6.6 23.302 18.5 23.302 6.601 0 12.2-3.6 14.801-9.4l.2.1c-.5 2.6-.6 4.8-.6 7.3v3.1c0 8.5-4.5 12.3-14.001 12.3-4.9 0-10.3-.899-14.7-2.5l-1.2 11.301c4.2 1 9.6 1.7 15.2 1.7 18.901 0 27.002-8.9 27.002-24v-50.003c-5.4-.9-11.2-1.501-18.1-1.501zm5.7 24.601c0 8.701-4.1 16.602-11 16.602-5.901 0-8.7-4.801-8.7-14.1 0-12.502 5.299-17.202 12.8-17.202 2.5 0 4.7.3 6.9.8v13.9zm-176.956-33.502c2.3.5 5 .9 7.4 1.1v18.002h-29.101v-18.001c2.4-.2 5.1-.6 7.4-1.1v-8h-27.801v7.8c2.6.6 5.7 1.1 8.7 1.3V294.1c-3 .2-6.1.7-8.7 1.3v7.8h27.801v-8c-2.3-.5-5-.9-7.4-1.1v-20.301h29.102v20.3c-2.4.2-5.101.6-7.4 1.101v8h27.8v-7.8c-2.6-.6-5.7-1.1-8.7-1.3v-49.303c3-.2 6.1-.7 8.7-1.3v-7.8h-27.8v8zm75.558 26.202c0-11-4.8-17.5-20.102-17.5-6.1 0-13 1.5-18.5 3.5l1.9 9.4c4.8-1.9 10.6-3.3 15.1-3.3 6.7 0 9 2.8 9 8.7v2.1c-17.4 0-28.801 5.6-28.801 17.302 0 8.1 5.3 14.1 14.2 14.1 7.502 0 13.601-4 16.002-9.6l.1.1c-.4 2.6-.5 5.6-.5 8.6 6.4.2 14-.1 20.301-.9v-7.7c-2.9-.2-6.3-.6-8.7-1v-23.802zm-12.602 12.601c0 5.9-4.2 12.1-10.6 12.1-3.8 0-6.1-2.6-6.1-6 0-4.3 3.6-7.6 16.7-7.6v1.5z" fill="#155429"/><path d="M555.033 399.465h-86.3v48.19h86.3c62.76 0 85.899-4.771 85.899-4.771v-48.75s-23.36 5.331-85.899 5.331z" fill="#1d6b34"/><path d="M356.834 387.269l15.687 36.777a3182.7 3182.7 0 0188.727.249v-33.613l72.398-9.371s-10.06-1.74-37.407-3.741c-27.347-2-66.622-1.27-66.622-1.27s-15.754 5.295-21.832 6.355c-6.078-1.06-21.83-6.356-21.83-6.356s-38.98-.728-66.327 1.27c-27.309 1.996-45.497 4.872-45.606 4.887l82.812 4.813z" fill="#1d6b34"/><path d="M353.323 391.904l.135 32.41c6.293-.109 12.65-.198 19.063-.268l-15.687-36.777-82.812-4.813v9.279c55.91-.136 79.301.169 79.301.169z" fill="#155429"/><path d="M345.839 399.465h-85.305c-62.539 0-85.899-5.33-85.899-5.33v48.749s23.14 4.77 85.9 4.77h85.304v-48.189z" fill="#1d6b34"/><path d="M182.282 395.416c-5.265-.739-7.647-1.281-7.647-1.281v48.749s8.341 1.718 28.575 3.092c-13.422-15.153-19.907-33.934-20.928-50.56z" fill="#155429"/><path d="M203.274 411.112h9.172v2.87h-2.486l5.846 16.206c.245.666.385 1.436.56 2.136h.07c.175-.7.315-1.47.56-2.136l5.74-16.206h-2.835v-2.87h8.961v2.87h-2.205l-8.4 21.632h-4.342l-8.505-21.632h-2.136v-2.87zm27.916 21.632h2.416l.14-18.762h-2.555v-2.87h10.886c5.04 0 7.42 2.905 7.42 6.475 0 4.236-2.73 6.161-5.845 6.476v.07c1.365.105 2.275 1.26 3.115 2.66l2.66 4.48c.7 1.156 1.366 1.471 2.171 1.471h.91v2.87h-2.275c-2.066 0-3.01-.21-4.446-2.59l-3.36-5.706c-1.015-1.75-1.54-2.135-2.695-2.135h-2.1l-.07 7.561h2.835v2.87h-9.206v-2.87zm9.487-10.641c2.765 0 4.69-1.47 4.69-4.096 0-2.555-1.575-4.025-4.41-4.025H237.7l-.07 8.121h3.046zm14.838 10.641h2.45l.14-18.762h-2.835v-2.87h17.222l.14 6.44h-3.255l-.21-3.57h-7.106l-.07 7.56h7v3.081h-7l-.07 8.121h7.456l.28-3.99h3.29l-.28 6.86h-17.152v-2.87zm21.385 0h2.485l.14-18.762H276.9v-2.87h11.62c7.877 0 12.392 4.585 12.392 11.69 0 7.247-4.585 12.812-12.426 12.812H276.9v-2.87zm10.326 0c5.985 0 9.346-3.64 9.346-9.766 0-5.496-3.15-8.996-9.171-8.996h-3.956l-.14 18.762h3.92zm16.449 0h2.45l.14-18.762h-2.835v-2.87h17.222l.14 6.44h-3.256l-.21-3.57h-7.105l-.07 7.56h7v3.081h-7l-.07 8.121h7.455l.28-3.99h3.29l-.28 6.86h-17.15v-2.87zm190.158 0h2.415l.14-18.762h-2.555v-2.87h10.886c5.041 0 7.42 2.905 7.42 6.475 0 4.236-2.73 6.161-5.845 6.476v.07c1.365.105 2.275 1.26 3.115 2.66l2.661 4.48c.7 1.156 1.365 1.471 2.17 1.471h.91v2.87h-2.275c-2.065 0-3.01-.21-4.445-2.59l-3.36-5.706c-1.016-1.75-1.54-2.135-2.696-2.135h-2.1l-.07 7.561h2.835v2.87h-9.206v-2.87zm9.486-10.641c2.765 0 4.691-1.47 4.691-4.096 0-2.555-1.575-4.025-4.411-4.025h-3.255l-.07 8.121h3.045zm14.839 10.641h2.45l.14-18.762h-2.835v-2.87h17.222l.14 6.44h-3.255l-.21-3.57h-7.106l-.07 7.56h7.001v3.081h-7.001l-.07 8.121h7.456l.28-3.99h3.29l-.28 6.86h-17.152v-2.87zm37.626-14.456v-3.92c-.91-.246-2.31-.596-4.165-.596-5.845 0-8.891 3.57-8.891 9.696 0 5.566 3.36 9.486 8.366 9.486 1.68 0 3.465-.175 4.375-.35l.14-4.41h3.5l-.14 6.685c-1.574.525-4.725 1.155-7.63 1.155-8.786 0-12.951-5.46-12.951-12.426 0-7.631 5.11-12.916 13.266-12.916 3.08 0 5.986.665 7.63 1.33v6.266h-3.5zm22.61 14.456h2.45l.07-7.876h-11.376l-.07 7.876h2.625v2.87h-9.03v-2.87h2.45l.14-18.762h-2.59v-2.87h9.03v2.87h-2.485l-.07 7.806h11.376l.07-7.806h-2.59v-2.87h9.031v2.87h-2.485l-.14 18.762h2.625v2.87h-9.031v-2.87zm18.314 0h2.52l.14-18.762h-5.706l-.14 3.57h-3.5l.14-6.44h22.228l.14 6.44h-3.5l-.141-3.57h-5.6l-.14 18.762h2.835v2.87h-9.276v-2.87z" fill="#fff"/><path d="M409.024 179.779c23.405 0 41.045 1.145 52.778 2.283l2.663-21.318c-11.47-1.015-33.052-3.545-56.516-3.545-23.682 0-45.922 2.562-57.606 3.572l2.78 21.608c11.626-1.232 30.314-2.6 55.9-2.6zm37.321-9.567c.214-1.75 2.349-2.925 5.309-2.925.46 0 .932.029 1.401.084 1.565.195 3.008.686 4.073 1.392 1.258.839 1.88 1.898 1.745 2.986-.214 1.749-2.343 2.926-5.301 2.926-.462 0-.935-.029-1.405-.087-3.572-.437-6.073-2.318-5.822-4.376zm-16.193-5.3l7.17 3.93-7.365 3.55-7.174-3.93 7.369-3.55zm-22.655-.685c3.87 0 6.788 1.666 6.788 3.876s-2.918 3.877-6.788 3.877c-3.872 0-6.79-1.667-6.79-3.877s2.918-3.876 6.79-3.876zm-22.655.685l7.368 3.546-7.171 3.934-7.369-3.55 7.172-3.93zm-26.977 3.851c1.064-.706 2.513-1.197 4.078-1.392.467-.055.935-.084 1.397-.084 2.96 0 5.093 1.174 5.31 2.923.253 2.06-2.253 3.94-5.822 4.378-.473.058-.94.087-1.402.087-2.959 0-5.093-1.176-5.306-2.926-.133-1.088.485-2.147 1.745-2.986zm55.669-33.71a5.672 5.672 0 10-11.34.002 5.672 5.672 0 0011.34-.002zm-60.51 3.838a5.673 5.673 0 10-11.343 0 5.67 5.67 0 005.671 5.67 5.67 5.67 0 005.673-5.67zm48.326 3.13a5.675 5.675 0 00-5.67 5.67 5.674 5.674 0 0011.344 0 5.674 5.674 0 00-5.674-5.67zm-13.018.962a5.67 5.67 0 100 11.339 5.667 5.667 0 005.67-5.67 5.669 5.669 0 00-5.67-5.67zm-13.02.958a5.671 5.671 0 000 11.342 5.67 5.67 0 100-11.342zm-13.017.958a5.674 5.674 0 00-5.673 5.67c0 3.13 2.54 5.672 5.673 5.672a5.67 5.67 0 005.668-5.671 5.67 5.67 0 00-5.668-5.671zm-13.025.958a5.666 5.666 0 00-5.667 5.67 5.668 5.668 0 005.667 5.672 5.671 5.671 0 100-11.342zm65.103-3.836a5.672 5.672 0 00-1.925 11.008l5.58-9.67a5.656 5.656 0 00-3.655-1.338z" fill="#e3c029"/><path d="M468.37 133.218a5.67 5.67 0 100 11.342 5.67 5.67 0 100-11.342zm-1.915 12.639a5.671 5.671 0 000 11.342 5.668 5.668 0 005.668-5.671 5.667 5.667 0 00-5.668-5.671zm-13.02-.958a5.67 5.67 0 000 11.342 5.672 5.672 0 000-11.342zm-13.024-.958a5.672 5.672 0 10.002 11.34 5.672 5.672 0 00-.002-11.34zm-13.02-.958a5.67 5.67 0 100 11.339 5.669 5.669 0 100-11.34zm-9.362.377l-5.581 9.669c.6.218 1.249.334 1.925.334a5.671 5.671 0 005.672-5.671 5.655 5.655 0 00-2.016-4.332zm-10.532 28.62c-2.294 0-4.254-.587-5.471-1.524l-5.606 9.437c4-.073 8.199-.114 12.604-.114 23.405 0 41.045 1.145 52.778 2.283l2.663-21.318c-11.155-.986-31.867-3.407-54.57-3.538l-4.253 7.157a12.644 12.644 0 011.855-.136c3.87 0 6.788 1.666 6.788 3.876s-2.918 3.877-6.788 3.877zm38.848-1.768c.214-1.75 2.349-2.925 5.309-2.925.46 0 .932.029 1.401.084 1.565.195 3.008.686 4.073 1.392 1.258.839 1.88 1.898 1.745 2.986-.214 1.749-2.343 2.926-5.301 2.926-.462 0-.935-.029-1.405-.087-3.572-.437-6.073-2.318-5.822-4.376zm-16.193-5.3l7.17 3.93-7.365 3.55-7.174-3.93 7.369-3.55z" fill="#d2ad15"/><path d="M461.248 390.682v1.222h80.597v-9.447s-2.956-.464-8.199-1.146l-72.398 9.371zm174.459 53.035c3.582-.553 5.225-.833 5.225-.833v-48.75s-5.758 1.314-19.2 2.637c9.128 11.119 12.772 29.227 13.975 46.946z" fill="#155429"/><path d="M387.833 409.192h2.12l.121-16.237h-2.453v-2.485h14.904l.122 5.575h-2.818l-.181-3.09h-6.15l-.06 6.543h6.058v2.666h-6.059l-.06 7.028h6.452l.243-3.453h2.847l-.242 5.938h-14.844v-2.485zm18.627 0h2.06l.122-16.237h-2.666v-2.485h5.574l9.816 12.815c.636.848 1.545 2.242 2.12 3.181h.06l-.12-13.511h-2.363v-2.485h7.392v2.485h-2.06l-.122 18.722h-2.757l-10.603-13.754c-.606-.788-1.181-1.636-1.484-2.242l-.06.061.12 13.45h2.333v2.485h-7.361v-2.485z" fill="#fff"/><linearGradient id="a" gradientUnits="userSpaceOnUse" x1="582.37" y1="348.485" x2="582.373" y2="348.485" gradientTransform="matrix(-1 0 0 1 1142.973 0)"><stop offset="0" stop-color="#b98f16"/><stop offset="1" stop-color="#d2ad15"/></linearGradient><path fill="url(#a)" d="M560.6 348.494v-.018l.003.018z"/><path d="M635.236 248.363c0-11.007-14.696-7.53-22.754-7.53-8.063 0-7.487-10.411-7.487-10.411h15.342c12.246 0 20.077 7.55 14.899 17.941z" fill="#d2ad15"/><path d="M587.625 225.838c3.58-3.581 7.293-5.554 12.576-5.554 11.724 0 28.682-.747 31.05-6.904 2.057 2.158 1.867 6.516-3.144 11.524 13.201 0 15.525 3.002 16.857 5.809 3.446 7.256-2.532 17.65-9.728 17.65 5.178-10.391-2.653-17.941-14.899-17.941h-20.136c-1.797 0-3.769.942-5.409 2.582-3.476 3.478-3.476 9.138 0 12.615l24.307 24.306c1.535 1.534 2.645 3.276 3.546 5.13l-39.985-30.663c-1.762-6.396-.053-13.534 4.965-18.554z" fill="#efd544"/><path d="M558.971 202.036c-.195-.73-.32-1.417-.388-2.068 3.527-4.138 9.414-5.766 17.368-2.408 10.008 4.221 19.13-3.092 19.13-3.092-6.884 13.187-16.442 8.91-24.73 6.306-4.525-1.42-8.773-.025-11.38 1.262zm-42.129 49.6c-8.507-4.863-15.346-8.408-15.36-8.414l-.002-.001 3.237 14.003s-9.602 15.626-14.747 24.106c.11.054.227.098.336.157 0 0 26.584-29.822 26.583-29.823v-.001a2.405 2.405 0 00-.047-.027z" fill="#b98f16"/><path d="M562.84 229.523c0-10.253-6.92-14.457-10.014-15.828-4.588-.187-9.32.242-13.378 1.898 1.323 12.122 18.738 28.326 29.202 31.905.084.025.162.053.246.078-4.997-3.854 3.314-18.053-6.056-18.053z" fill="#d2ad15"/><path d="M527.46 257.924a373.93 373.93 0 00-10.57-6.26l-26.584 29.823c-1.475-.787-3.125-1.279-4.911-1.279v10.451h.017c-4.485.989-7.48 4.703-7.48 10.433h7.484l-.004 9.322c.99 1.102 2.548 1.805 4.133 1.85l37.96-54.313c-.017-.007-.054-.014-.045-.027z" fill="#e3c029"/><path d="M566.56 257.564c-10.357 6.497-31.003 5.57-31.023 5.556l-.033-.021c-.024.009 5.83 3.59 11.884 9.425l40.66 6.473-21.488-21.433zm44.401 73.201c-4.7 0-18.904-1.875-18.904-12.299v-21.593l-10.844 17.684-.141 17.91c17.514 20.094 13.127 43.005 5.136 52.234v6.934c4.97-.096 9.854-.212 14.536-.383l-1.222-5.21 6.488-11.257s-2.834-36.237 4.951-44.02z" fill="#d2ad15"/><path d="M527.504 257.951l-37.959 54.314c.052 0 .101.009.16.009.636 0 13.427-9.504 13.427-9.504l32.405-39.65a225.886 225.886 0 00-8.033-5.169z" fill="#efd544"/><path d="M539.448 215.593c-14.031 7.253-20.46 28.216-37.966 27.629.024.01 19.895 10.31 34.055 19.898.027.019 36.806 1.666 36.806-14.893-9.336 0-31.4-18.931-32.895-32.634z" fill="#f6e477"/><path d="M504.143 230.743c3.041-7.866 4.156-20.66 7.488-33.364l-15.916-10.121-3.821-6.626h-17.873l-3.323 5.757c6.901.665 11.317 1.168 11.453 1.18l3.12.395v24.958l18.872 17.821z" fill="#e3c029"/><path d="M525.71 169.946v-10.713l11.018 4.85c-.098-.567-.332-3.57 4.856-6.452-.225 3.23 4.482 5.605 9.917 7.267-5.636 13.1-13.97 33.153-12.053 50.695-14.029 7.253-20.46 28.216-37.966 27.629 0 0-4.472-2.123-5.967-4.726 16.603 0 7.606-45.959 30.194-68.55zm45.557 173.757c5.402 5.42 8.642 11.698 8.642 17.762 0 13.68-9.262 18.657-9.262 18.657-10.988-3.521-14.07 7.636-14.832 11.689 3.885.005 7.93.007 12.138.007 6.014 0 12.556-.064 18.255-.168v-6.949c7.99-9.23 12.378-32.14-5.136-52.234l-9.805 11.236zm-10.728-19.097l-.008-8.087h-.002c0 .511 0 1.023.002 1.543l-34.059 7.927-22.548 44.4c6.765.551 12.837 1.14 18.102 1.707l-2.17-5.747 27.488-39.22 13.195-2.523z" fill="#efd544"/><path d="M510.573 329.69c-2.537 22.175-17.087 29.207-17.087 29.207s-2.778-.69-5.656-.69c-6.398 0-9.528 10.581-9.528 10.581 3.377.153 6.914.356 10.454.575a466.062 466.062 0 0115.158 1.05l22.561-44.424-15.902 3.702z" fill="#e3c029"/><path d="M560.516 304.23l-14.641-10.734-40.837 33.808s2.123 2.959 5.535 2.387l49.958-11.629-.015-13.831z" fill="#d2ad15"/><path d="M535.536 263.121l-11.65 14.255 36.63 26.855-.008-6.937c0-2.31-.39-4.574-1.072-6.765-2.129-7.062-7.147-13.28-12.048-18.005-5.862-5.65-11.52-9.177-11.851-9.403h-.001z" fill="#efd544"/><path d="M578.264 181.796l-9.435-7.03-1.6-6.714s-8.51-.947-15.728-3.154c-5.636 13.1-13.97 33.153-12.053 50.695 12.976-5.291 32.815 1.922 32.815 1.922l-3.117-8.39 4.555-5.273s-13.517 1.575-13.522 1.567c-3.99-8.975-.651-13.394 8.043-13.394 3.627 0 6.44 1.758 6.44 1.758l1.883-6.124-1.628-3.034 2.3.212 1.047-3.041zm-20.785-6.075c-2.465.084-4.524-1.513-4.588-3.565a3.21 3.21 0 01.058-.68c3.037.19 6.18.6 8.802 1.014-.303 1.76-2.073 3.155-4.272 3.23z" fill="#e3c029"/><linearGradient id="b" gradientUnits="userSpaceOnUse" x1="1606.485" y1="348.463" x2="1606.488" y2="348.463" gradientTransform="translate(-1351.514)"><stop offset="0" stop-color="#b98f16"/><stop offset="1" stop-color="#d2ad15"/></linearGradient><path fill="url(#b)" d="M254.974 348.472v-.019l-.002.019z"/><path d="M180.339 248.341c0-11.008 14.695-7.53 22.754-7.53 8.062 0 7.487-10.411 7.487-10.411h-15.343c-12.246 0-20.077 7.55-14.898 17.941z" fill="#d2ad15"/><path d="M227.95 225.816c-3.58-3.581-7.294-5.554-12.576-5.554-11.725 0-28.683-.747-31.05-6.904-2.058 2.158-1.867 6.515 3.144 11.523-13.202 0-15.526 3.003-16.858 5.81-3.445 7.256 2.533 17.65 9.729 17.65-5.179-10.392 2.652-17.941 14.898-17.941h20.137c1.797 0 3.769.942 5.408 2.582 3.477 3.477 3.477 9.137 0 12.615l-24.307 24.306c-1.535 1.534-2.644 3.276-3.545 5.13l39.985-30.664c1.762-6.395.053-13.534-4.965-18.553z" fill="#e3c029"/><path d="M256.603 202.014c.196-.73.32-1.417.388-2.068-3.526-4.138-9.414-5.766-17.367-2.409-10.009 4.222-19.13-3.091-19.13-3.091 6.884 13.187 16.441 8.909 24.73 6.305 4.525-1.42 8.773-.024 11.38 1.263z" fill="#b98f16"/><path d="M298.732 251.614a473.37 473.37 0 0115.36-8.415h.003l-3.238 14.003s9.603 15.625 14.747 24.105c-.11.055-.226.1-.336.157l-26.583-29.822v-.002l.047-.026z" fill="#e3c029"/><path d="M262.749 213.673c-3.095 1.371-10.015 5.575-10.015 15.828-9.37 0-1.058 14.198-6.055 18.053.084-.025.162-.053.246-.078 10.464-3.58 27.879-19.783 29.202-31.905-4.059-1.657-8.79-2.085-13.378-1.898z" fill="#d2ad15"/><path d="M288.114 257.902a373.93 373.93 0 0110.571-6.26l26.583 29.822c1.475-.786 3.125-1.278 4.912-1.278v10.451h-.017c4.484.988 7.48 4.702 7.48 10.433h-7.485l.005 9.322c-.99 1.101-2.549 1.805-4.134 1.85L288.07 257.93c.017-.008.054-.014.044-.027z" fill="#efd544"/><path d="M249.014 257.541c10.358 6.498 31.003 5.57 31.024 5.557l.032-.021c.025.008-5.83 3.589-11.884 9.424l-40.659 6.474 21.487-21.434z" fill="#e3c029"/><path d="M204.613 330.742c4.701 0 18.905-1.875 18.905-12.298V296.85l10.843 17.683.142 17.91c-17.515 20.094-13.127 43.005-5.137 52.235v6.934a853.4 853.4 0 01-14.535-.383l1.222-5.21-6.489-11.257s2.834-36.237-4.95-44.02z" fill="#f6e477"/><path d="M229.366 391.628c5.7.104 12.241.168 18.256.168 4.208 0 8.253-.002 12.138-.008-.763-4.052-3.844-15.21-14.832-11.688 0 0-9.263-4.977-9.263-18.657 0-6.081 3.208-12.337 8.638-17.767l-9.8-11.231c-17.515 20.093-13.127 43.004-5.137 52.234v6.95z" fill="#e3c029"/><path d="M288.07 257.929l37.96 54.313c-.053 0-.101.01-.161.01-.636 0-13.427-9.505-13.427-9.505l-32.404-39.649a225.875 225.875 0 018.032-5.169z" fill="#d2ad15"/><path d="M243.231 248.204c0 16.56 36.78 14.912 36.807 14.894 14.16-9.588 34.03-19.888 34.055-19.899-17.506.587-23.935-20.375-37.966-27.628-1.496 13.703-23.56 32.633-32.896 32.633z" fill="#f6e477"/><path d="M311.431 230.721c-3.04-7.866-4.156-20.661-7.488-33.364l15.916-10.121 3.821-6.626h17.874l3.323 5.757c-6.902.664-11.318 1.168-11.453 1.18l-3.121.395V212.9l-18.873 17.82z" fill="#d2ad15"/><path d="M289.865 169.924V159.21l-11.018 4.85c.097-.567.332-3.568-4.857-6.451.226 3.23-4.481 5.605-9.917 7.266 5.637 13.1 13.97 33.154 12.054 50.696 14.028 7.253 20.459 28.215 37.966 27.628 0 0 4.471-2.122 5.966-4.725-16.602 0-7.606-45.96-30.194-68.55z" fill="#e3c029"/><path d="M268.19 272.497c0 .002-.003.003-.004.004l.004-.004zm-71.623 24.354a18.92 18.92 0 0013.475 5.58 18.93 18.93 0 0013.476-5.58l10.843 17.683.142 17.91 20.496 23.49c.01-6.542.067-58.662.067-58.662 0-2.31.39-4.574 1.073-6.765 2.128-7.062 7.147-13.281 12.047-18.006l-40.659 6.474-8.33 8.19s-8.955 9.029-15.458 2.52c-3.48-3.48-3.48-9.138 0-12.615l24.303-24.304a18.9 18.9 0 004.873-8.397l-39.985 30.665c-3.454 7.107-2.257 15.921 3.637 21.817z" fill="#efd544"/><path d="M255.036 324.583l.008-8.087h.002l-.002 1.544 34.058 7.927 22.548 44.4c-6.764.55-12.837 1.14-18.101 1.707l2.17-5.747-27.489-39.22-13.194-2.524z" fill="#f6e477"/><path d="M305.002 329.668c2.537 22.175 17.087 29.206 17.087 29.206s2.777-.69 5.655-.69c6.398 0 9.528 10.582 9.528 10.582a619.8 619.8 0 00-10.454.575c-3.005.16-5.942.343-8.752.546-2.207.163-4.327.33-6.406.503l-22.56-44.423 15.902 3.701z" fill="#d2ad15"/><path d="M255.058 304.208l14.642-10.734 40.836 33.807s-2.122 2.96-5.534 2.387l-49.958-11.628.014-13.832z" fill="#e3c029"/><path d="M280.039 263.099l11.65 14.254-36.63 26.855.007-6.936c0-2.31.39-4.574 1.073-6.765 2.128-7.062 7.147-13.281 12.047-18.006 5.863-5.65 11.52-9.177 11.852-9.403z" fill="#b98f16"/><path d="M264.073 164.875c-7.218 2.207-15.727 3.155-15.727 3.155l-1.6 6.713-9.436 7.03 1.048 3.042 2.3-.212-1.629 3.034 1.883 6.124s2.813-1.759 6.44-1.759c8.695 0 12.034 4.42 8.043 13.395-.004.008-13.521-1.568-13.521-1.568l4.555 5.273-3.118 8.39s19.84-7.212 32.816-1.921c1.916-17.542-6.417-37.595-12.054-50.696zm-5.977 10.824c-2.2-.077-3.97-1.472-4.273-3.231 2.622-.415 5.766-.825 8.803-1.015a3.3 3.3 0 01.058.681c-.065 2.052-2.124 3.648-4.588 3.565z" fill="#efd544"/><path d="M477.93 321.68c0 39.356-70.146 53.295-70.146 53.295s-70.142-13.94-70.142-53.296V194.667s23.736-4.504 70.142-4.504c46.41 0 70.145 4.504 70.145 4.504v127.012z" fill="#d2ad15"/><path d="M407.784 374.975s70.145-13.94 70.145-53.296V194.667s-23.734-4.504-70.145-4.504c-10.932 0-20.607.25-29.008.632 63.329 2.53 88.64 11.092 88.64 11.092s.056 88.597.056 121.063c0 32.467-59.688 52.025-59.688 52.025z" fill="#b98f16"/><path d="M421.946 267.063l-5.37-.668-1.66 2.216-12.54-7.994c1.261 6.311 4.7 18.334 13.525 28.562 5.879 4.253 12.022 8.706 16.9 12.239-.385-20.647-7.376-32.015-9.194-36.57l-1.661 2.215z" fill="#4b4b4b"/><path d="M396.277 275.008c-6.571-4.692-4.42-13.971-.097-18.337l18.736 11.94 1.66-2.216 5.37.668 1.66-2.216 13.855 2.384c-2.586-4.139-6.894-10.804-13.44-15.264l1.661-2.216c-3.346-1.577-10.995-2.826-19.838-2.826h-13.486l9.53-27.17c2.535-7.312-1.98-13.162-6.894-13.705-7.425-.817-10.496 7.171-10.496 7.171l8.144 8.295c.183.042-10.502 24.962-10.502 24.962-1.09 2.61-1.805 5.992-1.829 9.646-.045 6.978 3.144 14.102 9.642 20.414 5.512 5.355 29.367 24.065 29.367 24.065l1.92-2.551 11.561 3.366s-34.688-25.103-36.524-26.41z" fill="#fff"/><path d="M402.375 260.617l-6.195-3.946c-4.323 4.366-6.474 13.645.097 18.337 2 1.423 10.48 7.555 19.624 14.171-8.824-10.228-12.264-22.25-13.526-28.562z" fill="#636363"/><path d="M437.461 267.23l-13.854-2.383c1.818 4.556 8.81 15.924 9.194 36.57 5.532 4.01 9.434 6.833 9.434 6.833l2.734-3.644 7.168 4.96a86.39 86.39 0 00-1.627-9.313c-3.107-14.576-8.25-25.544-13.049-33.022z"/><path d="M425.322 352.429c-.306-.773-.879-1.51-1.976-1.51h-4.026v-19.05l-3.297 1.498v17.494h-6.117c-.71 0-2.08 1.009-2.55 1.009h-2.733c-1.102 0-1.676.733-1.978 1.509l-.201.6-.114.758c-.025.243-.025.406-.025.406h6.595l1.354-1.007h2.75c-1.732 1.065-3.586 2.208-4.289 2.636-.942.577-1.057 1.51-.92 2.329l.147.635.283.687c.105.223.182.364.182.364l11.173-6.598h6.082s-.004-.16-.028-.405l-.188-.785-.124-.57z" fill="#4b4b4b"/><path d="M367.38 281.749l-.62.83.369 5.412 1.032-1.393.743.09 4.263 7.398.144-.09.53-.433.463-.412c.616-.668 1.135-1.64.516-2.724l-.78-1.357 12.602 5.983 5.153-1.217-20.653-9.782a64.755 64.755 0 01-1.084-1.977c-.367-.57-1.735-.782-2.678-.328z" fill="#636363"/><path d="M392.642 221.516l-8.144-8.295-35.084 8.295z"/><path d="M366.088 283.485l-6.712.86s-2.004 2.57-3.027 3.944c-.659.886-.42 1.79.01 2.502l.406.526.48.543c.175.162.304.261.304.261l3.42-4.6 2.76-.39c-1.32 1.781-2.73 3.674-3.221 4.34-.659.886-.419 1.793.016 2.503l.436.561.445.506c.176.166.305.265.305.265l5.419-7.315-.369-5.411-.672.905zm45.242 10.794c-1.05-.836-2.157-1.72-3.297-2.634v9.588l-.489.06-15.75-7.457-5.152 1.217 19.642 9.326 2.014 2.597 3.232-.464 1.218-3.06-1.419-1.827v-7.346z" fill="#4b4b4b"/><path d="M397.247 213.191s-3.755 1.68-4.674 1.68c-.915 0-1.773-.753-1.773-1.68 0-.928.858-1.68 1.773-1.68.919 0 4.674 1.68 4.674 1.68zm-38.453 20.825c-2.356-4.17.403-6.719 2.338-8.676 1.4-1.422 2.614-2.644 2.64-4.44.035-2.358-1.305-2.789-4.6-3.267-1.958-.285-3.983-.579-5.134-2.064-.652-.85-.918-1.839-.765-2.86.342-2.28 2.68-3.984 2.943-4.17a1.438 1.438 0 012.016.364 1.47 1.47 0 01-.358 2.037c-.519.369-1.618 1.388-1.74 2.209-.022.164-.017.353.19.621.428.558 1.931.775 3.257.969 2.852.415 7.16 1.04 7.084 6.204-.042 2.98-1.87 4.831-3.482 6.464-1.837 1.856-3.334 3.214-2.34 5.834.65 1.719 3.596 2.63 3.03 3.646-.534.958-3.925-.826-5.08-2.87zm60.526 66.587s-1.278-1.003-3.297-2.599v6.044h.038l-1.633 2.855 1.595 2.797v23.667l3.297-1.499v-22.11l1.634-2.855-1.634-2.855v-3.445z"/><path fill="#636363" d="M443.896 306.034l-1.661 2.216m1.057-46.323c-5.026-5.202-10.985-9.387-17.61-12.176l-1.66 2.216c6.545 4.46 10.853 11.125 13.44 15.264 4.799 7.478 9.94 18.446 13.048 33.022a86.412 86.412 0 011.627 9.313l6.926 4.856c3.531-20.03-3.177-39.464-15.77-52.495z"/><path d="M547.388 272.524c0-.002-.003-.003-.004-.004l.004.004zm75.257 2.532l-39.985-30.664a18.9 18.9 0 004.873 8.396l24.302 24.304c3.48 3.477 3.48 9.135 0 12.615-6.503 6.509-15.457-2.52-15.457-2.52l-8.33-8.19-40.66-6.473c4.9 4.724 9.92 10.943 12.048 18.005.682 2.19 1.072 4.454 1.072 6.765 0 0 .057 52.12.068 58.662l20.496-23.49.141-17.91 10.844-17.683a18.929 18.929 0 0013.476 5.581 18.92 18.92 0 0013.474-5.58c5.895-5.896 7.091-14.71 3.638-21.818z" fill="#e3c029"/></svg>