<svg xmlns="http://www.w3.org/2000/svg" xmlns:xlink="http://www.w3.org/1999/xlink" viewBox="0 0 300 55.2"><defs><path id="a" d="M1.9 2h295.5v50H1.9z"/></defs><clipPath id="b"><use xlink:href="#a" overflow="visible"/></clipPath><path d="M106.8 18.9h1.5v-3.2l4.4-1.2-.1 4.5h2.7l-.3 2.9h-2.5s-.1 3.6-.1 4.7c0 3.1.2 3.4 1.6 3.3.6 0 1.3-.3 1.3-.3l-.3 2.9s-2.7.7-4.5.2c-2.9-.9-2.3-3.6-2.3-6.2 0-1.5.1-4.7.1-4.7h-1.7l.2-2.9zm-93.5 4.4h4.6v8.2s-3.5 1.7-8.4 1c-6.9-1-7.6-7.4-7.4-9.9.5-6 4.4-8.6 8.4-8.8 3.6-.2 5.4.6 6.6 1.1l.2.1-.5 4-.3-.2c-.5-.3-2.1-1.5-4.5-1.5-4.1.1-5.2 3.8-5.2 5.6 0 3.6 1.2 6.2 4.5 6.4 1.1.1 2.2-.3 2.2-.3v-2.3c-.2-1.4-.2-3.4-.2-3.4m11.8 3.4s0 3.1 3.8 3.1c2.7 0 4.2-1.1 4.2-1.1l-.2 3.1s-.1.1-.3.2c-.7.4-2.3 1-5.7.7-2.7-.2-5.9-2.1-6-6.8-.1-4.4 2.3-7.2 6.4-7.4 6.5-.3 6.5 6.1 6.4 7.8v.4h-8.6zm0-2.6h4.3s.3-3-2.3-2.8c-2 .2-2 2.8-2 2.8m11.7-5l4.7-.7V20l.2-.2c.4-.3 2-1.5 3.6-1.5 1.5 0 2.8.7 3.3 1.8 0 0 1.7-1.6 4.3-1.7 1.2 0 4.1.2 4.1 4v6.7c0 1.4.1 3.2.1 3.2h-4.5s.1-5.1.1-6.9c0-1.3.2-3.7-1.7-3.7-1.3 0-1.8.7-1.8.7v10h-4.5s.1-4.5.1-7c0-1.5.2-3.6-1.7-3.6-1.2 0-1.7.6-1.7.6v10h-4.5s.1-4.3 0-7.2c.1-3.2-.1-6.1-.1-6.1m66.8 10v3.2h-4.5s.1-4.5.1-7c0-1.5.2-3.6-1.7-3.6-1.2 0-2.1.6-2.1.6v10h-4.5s.1-4.3 0-7.2c-.1-3.2-.2-6.1-.2-6.1l4.7-.7V20l.2-.2c.4-.3 2.4-1.5 4-1.5 1.5 0 3.9.9 3.9 4.1 0 2.4.1 5 .1 6.7M64 26.7s0 3.1 3.8 3.1c2.7 0 4.2-1.1 4.2-1.1l-.2 3.1s-.1.1-.3.2c-.7.4-2.3 1-5.7.7-2.7-.2-5.9-2.1-6-6.8-.1-4.4 2.3-7.2 6.4-7.4 6.5-.3 6.5 6.1 6.4 7.8v.4H64zm0-2.6h4.3s.3-3-2.3-2.8c-2 .2-2 2.8-2 2.8m15.2 2.6s0 3.1 3.8 3.1c2.7 0 4.2-1.1 4.2-1.1l-.2 3.1s-.1.1-.3.2c-.7.4-2.3 1-5.7.7-2.7-.2-5.9-2.1-6-6.8-.1-4.4 2.3-7.2 6.4-7.4 6.5-.3 6.5 6.1 6.4 7.8v.4h-8.6zm0-2.6h4.3s.3-3-2.3-2.8c-2 .2-2 2.8-2 2.8m42.9 2.6s0 3.1 3.8 3.1c2.7 0 4.2-1.1 4.2-1.1l-.2 3.1s-.1.1-.3.2c-.7.4-2.3 1-5.7.7-2.7-.2-5.9-2.1-6-6.8-.1-4.4 2.3-7.2 6.4-7.4 6.5-.3 6.5 6.1 6.4 7.8v.4h-8.6zm.1-2.6h4.3s.3-3-2.3-2.8c-2 .2-2 2.8-2 2.8m38.7 2.6s0 3.1 3.8 3.1c2.7 0 4.2-1.1 4.2-1.1l-.2 3.1s-.1.1-.3.2c-.7.4-2.3 1-5.7.7-2.7-.2-5.9-2.1-6-6.8-.1-4.4 2.3-7.2 6.4-7.4 6.5-.3 6.5 6.1 6.4 7.8v.4h-8.6zm0-2.6h4.3s.3-3-2.3-2.8c-2 .2-2 2.8-2 2.8m15.2 2.6s0 3.1 3.8 3.1c2.7 0 4.2-1.1 4.2-1.1l-.2 3.1s-.1.1-.3.2c-.7.4-2.3 1-5.7.7-2.7-.2-5.9-2.1-6-6.8-.1-4.4 2.3-7.2 6.4-7.4 6.5-.3 6.5 6.1 6.4 7.8v.4h-8.6zm0-2.6h4.3s.3-3-2.3-2.8c-2 .2-2 2.8-2 2.8m11.6-2.1v-3.2l4.5-.1s-.1 4.6-.1 7.1c0 1.5-.2 3.6 1.7 3.6 1.2 0 2.1-.6 2.1-.6v-9.9l4.5-.1s-.1 4.4 0 7.2c.1 3.2.1 6.6.1 6.6h-4.6v-1.4l-.2.2c-.4.3-2.4 1.5-4 1.5-1.5 0-3.9-.9-3.9-4.1-.1-2.5-.1-5.1-.1-6.8m39.9-2.6s2.9-1 5.7-.9c3 .2 4.9.8 5 5v8.9H234v-1.1s-1.5 1.8-4.5 1.3c-3.5-.5-3.9-4.3-3.4-5.8 1-3 5.5-3.5 7.4-3.7h.5v-.3c0-.6-.4-1.5-2.6-1.3-2.4.2-3.9 1-3.9 1l.1-3.1zm2.7 9.1c.5 1.8 3 .9 3.6.5l.1-.1v-3.1h-.2c-.4 0-4.2.3-3.5 2.7m12.1-9.2l4.5-.7v2.6s.3-1.1 1.5-2c1-.8 2.3-.4 2.3-.4l-.9 4.4s-1-.7-1.9-.3c-1.3.5-1.1 2.1-1.1 3.8 0 2.4.1 5.9.1 5.9h-4.6s.1-3.9 0-6.8c.2-3.6.1-6.5.1-6.5m18.7-6.6l4.5-.8s0 1.4-.1 3.3c0 4.6-.1 10.4-.1 14.1v3.1h-4.3v-1.1s-1.3 1.4-3.7 1.4c-1.4 0-5.5-1-5.1-7.3.4-6.3 5.9-6.7 8.4-6.6h.5l-.1-6.1zM256.8 25c-.4 2.6.7 4.6 2.2 4.7 1.3.1 2.1-.6 2.1-.6v-7.3s-3.6-.8-4.3 3.2m-53.7-6.3l4.5-.1 2 9.8 2.1-9.6 5.2-.1 1.9 9.8 2.1-9.7 3.7-.1s-1.3 4.5-2.1 7.5-1.8 6.3-1.8 6.3h-4.9L214 23l-2.2 9.5h-5s-.7-3.1-1.7-6.7c-.9-2.9-2-7.1-2-7.1m69.8 8s0 3.1 3.8 3.1c2.7 0 4.2-1.1 4.2-1.1l-.2 3.1s-.1.1-.3.2c-.7.4-2.3 1-5.7.7-2.7-.2-5.9-2.1-6-6.8-.1-4.4 2.3-7.2 6.4-7.4 6.5-.3 6.5 6.1 6.4 7.8v.4h-8.6zm0-2.6h4.3s.3-3-2.3-2.8c-2 .2-2 2.8-2 2.8m24.5 5.1v3.2H293s.1-4.5.1-7c0-1.5.2-3.6-1.7-3.6-1.2 0-2.1.6-2.1.6v10h-4.5s.1-4.3 0-7.2c-.1-3.2-.2-6.1-.2-6.1l4.7-.7v1.7l.2-.2c.4-.3 2.4-1.5 4-1.5 1.5 0 3.9.9 3.9 4.1v6.7" fill="#0d7dc2" clip-path="url(#b)"/><path d="M143.1 11.2L143 52h32.9v-7.4h9.5v-1.3h-33.6V11.2zm8.7-9.2h33.7v1.3h-33.7z" fill="#0d7dc2"/></svg>