<svg xmlns="http://www.w3.org/2000/svg" viewBox="0 0 722.9 566.9"><defs><style>.a{fill:#fd0}.b{fill:#fff}.c{fill:#e40046}</style></defs><path d="M237.7 188.8s-49-8.8-113.6-8.8c-63.7 0-113.6 8.8-113.6 8.8v180a113.6 113.6 0 0 0 227.2 0z" class="a"/><path d="M227 280v-8.6l-6-7.4h-7.3l7.5-6.2v-11.1l5.6-4.7h-24.3l-.1 6.2-8.8 7.4v-7.1l-3.7-4.3-7.9 6.6 2.6 3.1v18.3l-5.7 4.8v21.5l37 44.1v17.9l-6.1 5.1h-7.2l-50.9-60.7-.3-13.9 25.2-21.1-9.6-11.5v-46.5h-7.7V194H156l-8.5 7.1h-7.1l-3.4-4h-17.6l-4.6 3.9h-5.9l-7 5.8 2.2 2.7v9.7l3.1 3.7 4.4-3.7H124v5.8H97.1v-7.1h-5l-6 5 7.4 8.8h30.7v5.8h-12.8l-3.7-4.4-5.2 4.4v7.9h18.1l-12.3 10.3h-13l-27.9-33.2 8.3-7v-7.6l-7.4-8.9-11.9 10.3-7.8-9.2-9.9 8.2-3.2 2.7v19l47.1 56.3L70 296.8l-19.8 16.7-7.1-8.4-15.7 13.1v14.3l9.7 11.5 12.8-10.7 9.2 10.9L73 332.7l15.9-13.5 12.6-10.6 18.9 22.5-12.6 10.6L78 366.8v16.7H58l-20 16.8V413h11.5v-6.7h4.3l5.6 6.7h9l8-6.7h27.2v-22.8h22.9v-19.3l18.9 22.5V406l9.4 11.2-11.1 9.2h-9.8l-4.9 4.2v13.9h14l10.4 12.3 14.7-12.3h15.1v-12.8l3.2-2.7-.1-38.2 3.2-2.7-.1-25.8 9.8 11.7h13.9l10.7-8.9v-25.4l-37-44.1v-14.8l12-9.8h7l6.8 8.1v13.1zm-102.9-66.9l-4.8-5.7h11.6z"/><path class="b" d="M13.45 229.325l25.202-21.147 18.898 22.521-25.203 21.148z"/><path class="c" d="M32.27 251.768l25.203-21.147 18.898 22.521-25.203 21.148z"/><path class="b" d="M51.149 274.294l25.203-21.148 18.898 22.522-25.203 21.147z"/><path class="c" d="M70.038 296.81l25.202-21.148 18.898 22.521-25.203 21.148z"/><path class="b" d="M88.849 319.252l25.202-21.148 18.898 22.522-25.202 21.148z"/><path class="c" d="M107.737 341.778l25.203-21.148 18.898 22.522-25.203 21.147z"/><path class="b" d="M126.623 364.297l25.203-21.148 18.898 22.522-25.203 21.147zm37.7 44.958l25.203-21.148 18.898 22.522-25.203 21.148z"/><path class="c" d="M145.495 386.804l25.203-21.147 18.898 22.521-25.203 21.148z"/><path d="M344.1 302.4a12.79 12.79 0 0 0 1.9-7.1 14.47 14.47 0 0 0-1.7-7.2 12.67 12.67 0 0 0-5.1-4.6 28.44 28.44 0 0 0-7.6-2.3 70.41 70.41 0 0 0-9.8-.7h-.3a22.85 22.85 0 0 1-5.4-.7c-2.4-.7-3.3-2.2-3-3.3a3 3 0 0 1 1.3-1.7c.8.2 1.7.3 2.8.5a19.4 19.4 0 0 0 3.4.2 26.63 26.63 0 0 0 7.5-1 22.78 22.78 0 0 0 6.5-3 13.87 13.87 0 0 0 4.5-5.1 14.74 14.74 0 0 0 1.7-7.2 13.37 13.37 0 0 0-1-5.2 12.88 12.88 0 0 0-2.7-4.5l6.4-6.8-6.7-5.5-7.1 7.4a32.59 32.59 0 0 0-4.5-1.4 22.83 22.83 0 0 0-4.8-.5 26.63 26.63 0 0 0-7.5 1 20 20 0 0 0-6.4 3.1 15.65 15.65 0 0 0-4.5 5.1 14.74 14.74 0 0 0-1.7 7.2 13.82 13.82 0 0 0 1.6 6.7 16.64 16.64 0 0 0 4.3 5.2 12.78 12.78 0 0 0-3.7 3.2 7.36 7.36 0 0 0-1.4 4.3 8.2 8.2 0 0 0 1 3.7 16 16 0 0 0 2.8 3.5l-.4.3a12.52 12.52 0 0 0-4.9 10.3c0 5.2 2.2 9.1 6.7 11.5 4.1 2.3 9.8 3.4 17 3.4a32 32 0 0 0 8.3-1 21.62 21.62 0 0 0 7.1-2.9 12.34 12.34 0 0 0 5.4-4.9zm-29.7-48.6a9.22 9.22 0 0 1 6.3-2.1 9.67 9.67 0 0 1 6.4 2.1 6.89 6.89 0 0 1 2.5 5.6 6.38 6.38 0 0 1-2.5 5.4 10.14 10.14 0 0 1-6.4 1.9 9.66 9.66 0 0 1-6.3-1.9 6.57 6.57 0 0 1-2.4-5.4 7 7 0 0 1 2.4-5.6zm18.6 46.5a19.15 19.15 0 0 1-9.3 2 36.36 36.36 0 0 1-6-.5 18.3 18.3 0 0 1-4.5-1.4 8 8 0 0 1-2.6-2.1 4.46 4.46 0 0 1-.8-2.6 6.13 6.13 0 0 1 1.1-3.8 8.68 8.68 0 0 1 2.7-2.3c1.7.2 4.3.4 8 .5a72.51 72.51 0 0 1 7.7.5 17.94 17.94 0 0 1 4.5 1.2 3.47 3.47 0 0 1 1.8 1.5 5.68 5.68 0 0 1 .5 2.4 5.56 5.56 0 0 1-3.1 4.6zm57-22l-8.8-5.4c-1.8 2.5-3.6 4.2-5.3 4.9a13.19 13.19 0 0 1-5.7 1.1 10.33 10.33 0 0 1-6.6-2.4c-2-1.6-3.1-4.3-3.4-8h29.9c-.1-8.7-2-15.1-5.8-19.4a18.53 18.53 0 0 0-14.7-6.4 22.51 22.51 0 0 0-8.2 1.5 19.59 19.59 0 0 0-11.4 11.6 26.8 26.8 0 0 0-1.7 9.8 28.67 28.67 0 0 0 1.7 10.2 19.6 19.6 0 0 0 4.7 7.1 18.87 18.87 0 0 0 6.9 4.2 25.37 25.37 0 0 0 8.3 1.4 27.11 27.11 0 0 0 11.5-2.3c3.2-1.4 6.1-4.1 8.6-7.9zm-30.1-17.9a11.3 11.3 0 0 1 1.2-3.8 10.91 10.91 0 0 1 2.3-2.9 10 10 0 0 1 2.9-1.8 9.6 9.6 0 0 1 3.3-.6 9.35 9.35 0 0 1 5.9 2.3 10.22 10.22 0 0 1 3.2 6.9l.1.6h-19zm78.8 27.2v-26.4a26.61 26.61 0 0 0-.2-3 15 15 0 0 0-.4-2.4c.4-.3.9-.6 1.5-1a15.05 15.05 0 0 1 2.2-1.1 20 20 0 0 1 2.6-1 8.42 8.42 0 0 1 2.7-.4c3.1 0 5.2.9 6.4 2.7a13.18 13.18 0 0 1 1.7 7v25.7H467v-26.2a31.22 31.22 0 0 0-.9-7.9 14 14 0 0 0-3-5.8 12.94 12.94 0 0 0-5.6-3.6 28.52 28.52 0 0 0-16.7-.1 35.94 35.94 0 0 0-6.9 3 14.82 14.82 0 0 0-6-3.3 24.32 24.32 0 0 0-6.4-1 15.81 15.81 0 0 0-6.3 1.3 17.49 17.49 0 0 0-5.2 3.1l-.5-3.3h-10.9v43.7h11.9v-31.1a18.79 18.79 0 0 1 4-2.9 10.3 10.3 0 0 1 5.1-1.4 7.24 7.24 0 0 1 3.5.8 5.56 5.56 0 0 1 2.2 2.1 12.52 12.52 0 0 1 1.2 3.1 22.15 22.15 0 0 1 .4 3.8v25.7h11.8zm58.7 1a27.11 27.11 0 0 0 11.5-2.3c3.3-1.5 6.1-4.2 8.6-8l-8.8-5.4c-1.8 2.5-3.6 4.2-5.3 4.9a13.19 13.19 0 0 1-5.7 1.1 10.33 10.33 0 0 1-6.6-2.4c-2-1.6-3.1-4.3-3.4-8h29.9c-.1-8.7-2-15.1-5.8-19.4a18.53 18.53 0 0 0-14.7-6.4 22.51 22.51 0 0 0-8.2 1.5 19.59 19.59 0 0 0-11.4 11.6 26.8 26.8 0 0 0-1.7 9.8 28.67 28.67 0 0 0 1.7 10.2 19.6 19.6 0 0 0 4.7 7.1 18.87 18.87 0 0 0 6.9 4.2 21.42 21.42 0 0 0 8.3 1.5zm-9.9-28.2a11.3 11.3 0 0 1 1.2-3.8 10.91 10.91 0 0 1 2.3-2.9 10 10 0 0 1 2.9-1.8 9.6 9.6 0 0 1 3.3-.6 9.35 9.35 0 0 1 5.9 2.3 10.22 10.22 0 0 1 3.2 6.9l.1.6h-18.9zm42.5 22.7a18.87 18.87 0 0 0 6.9 4.2 25.37 25.37 0 0 0 8.3 1.4 27.11 27.11 0 0 0 11.5-2.3c3.3-1.5 6.1-4.2 8.6-8l-8.8-5.4c-1.8 2.5-3.6 4.2-5.3 4.9a13.19 13.19 0 0 1-5.7 1.1 10.33 10.33 0 0 1-6.6-2.4c-2-1.6-3.1-4.3-3.4-8h29.9c-.1-8.7-2-15.1-5.8-19.4s-8.6-6.4-14.7-6.4a22.51 22.51 0 0 0-8.2 1.5 19.59 19.59 0 0 0-11.4 11.6 26.8 26.8 0 0 0-1.7 9.8 28.67 28.67 0 0 0 1.7 10.2 20 20 0 0 0 4.7 7.2zm5.1-22.7a11.3 11.3 0 0 1 1.2-3.8 10.91 10.91 0 0 1 2.3-2.9 10 10 0 0 1 2.9-1.8 9.6 9.6 0 0 1 3.3-.6 9.35 9.35 0 0 1 5.9 2.3 10.22 10.22 0 0 1 3.2 6.9l.1.6h-19zm80 27.2v-25.9a27.69 27.69 0 0 0-1.2-8.7 16.09 16.09 0 0 0-3.4-5.9 13.58 13.58 0 0 0-5.2-3.3 20.48 20.48 0 0 0-6.7-1 22.05 22.05 0 0 0-7.1 1.2 20.17 20.17 0 0 0-6.3 3.4l-.5-3.4h-10.8v43.7h11.9v-31a18.89 18.89 0 0 1 4.1-3 10.3 10.3 0 0 1 5.1-1.4 7.48 7.48 0 0 1 6.1 2.7c1.5 1.8 2.2 4.4 2.2 7.7v25h11.8zm31.6-9.6a7.59 7.59 0 0 1-3.5.9 3.4 3.4 0 0 1-1.9-.8 3.72 3.72 0 0 1-1-2.9V253H651v-9.1h-10.6v-12.5h-11.8v12.5h-6.4v9.1h6.4v24a12.71 12.71 0 0 0 1 5.4 10 10 0 0 0 2.7 3.6 10.32 10.32 0 0 0 3.9 2 16.66 16.66 0 0 0 4.4.6 20.19 20.19 0 0 0 7-1.2 31.13 31.13 0 0 0 6.3-3.2l-4.3-8.1a11.2 11.2 0 0 1-2.9 1.9zm17 5.1a18.87 18.87 0 0 0 6.9 4.2 25.37 25.37 0 0 0 8.3 1.4 27.11 27.11 0 0 0 11.5-2.3c3.3-1.5 6.1-4.2 8.6-8l-8.8-5.4c-1.8 2.5-3.6 4.2-5.3 4.9a13.19 13.19 0 0 1-5.7 1.1 10.33 10.33 0 0 1-6.6-2.4c-2-1.6-3.1-4.3-3.4-8h29.9c-.1-8.7-2-15.1-5.8-19.4a18.53 18.53 0 0 0-14.7-6.4 22.51 22.51 0 0 0-8.2 1.5 19.59 19.59 0 0 0-11.4 11.6 26.8 26.8 0 0 0-1.7 9.8 28.67 28.67 0 0 0 1.7 10.2 23 23 0 0 0 4.7 7.2zm5.2-22.7a11.3 11.3 0 0 1 1.2-3.8 10.91 10.91 0 0 1 2.3-2.9 10 10 0 0 1 2.9-1.8 9.6 9.6 0 0 1 3.3-.6 9.35 9.35 0 0 1 5.9 2.3 10.22 10.22 0 0 1 3.2 6.9l.1.6h-19zm-293.1 91.5a24.55 24.55 0 0 0-5.9-4.1 52 52 0 0 0-8.1-3.4 46 46 0 0 1-9.3-4.3 6 6 0 0 1-3.1-5.2 5 5 0 0 1 2.4-4.3c1.6-1.1 3.9-1.6 7-1.6a13.52 13.52 0 0 1 7.7 1.9 18.26 18.26 0 0 1 4.8 4.8l8.8-6.3a29.52 29.52 0 0 0-3.2-4 18.45 18.45 0 0 0-4.3-3.4 22.69 22.69 0 0 0-5.9-2.3 31 31 0 0 0-7.8-.9 31.82 31.82 0 0 0-9.3 1.2 18.52 18.52 0 0 0-6.7 3.5 14.14 14.14 0 0 0-4 5.4 18.59 18.59 0 0 0-.1 13.4 14.91 14.91 0 0 0 3.4 4.9 21.2 21.2 0 0 0 5.4 3.6 67.38 67.38 0 0 0 7 2.9q4.2 1.5 6.9 2.7a18.77 18.77 0 0 1 4.3 2.5 7.72 7.72 0 0 1 2.2 2.7 9 9 0 0 1 .6 3.4 5.41 5.41 0 0 1-2.8 4.8 13.28 13.28 0 0 1-7.4 1.8 17.44 17.44 0 0 1-8-1.8 13.37 13.37 0 0 1-5.6-5.2l-9.3 6.2c4.4 7.4 12.1 11.2 23.1 11.2a32.4 32.4 0 0 0 8.2-1.1 19.71 19.71 0 0 0 7-3.3 17.21 17.21 0 0 0 4.9-5.5 16.07 16.07 0 0 0 1.9-7.8 19.19 19.19 0 0 0-1.2-7.1 17.75 17.75 0 0 0-3.6-5.3zm38.2 18.3a9.1 9.1 0 0 1-5.6 1.7 8.64 8.64 0 0 1-7.2-3.4c-1.8-2.3-2.8-5.5-2.8-9.7a21.49 21.49 0 0 1 .8-6.1 11.82 11.82 0 0 1 2.1-4.2 9 9 0 0 1 2.9-2.4 8.08 8.08 0 0 1 3.4-.8 8.22 8.22 0 0 1 5.2 1.8 14 14 0 0 1 3.9 6.1l9.3-4.6a19.18 19.18 0 0 0-2.3-4.5 18.36 18.36 0 0 0-3.8-4.1 18.61 18.61 0 0 0-5.4-2.9 20 20 0 0 0-7.1-1.1 22.33 22.33 0 0 0-7.7 1.4 18 18 0 0 0-6.6 4.3 22.23 22.23 0 0 0-4.6 7.3 26.61 26.61 0 0 0-1.7 10.2 24.49 24.49 0 0 0 1.8 9.8 22.55 22.55 0 0 0 4.7 7.1 20.16 20.16 0 0 0 6.8 4.3 21.85 21.85 0 0 0 8 1.5 21.3 21.3 0 0 0 11.1-2.8 19.78 19.78 0 0 0 7.6-8.7l-8.9-4.8a22.49 22.49 0 0 1-3.9 4.6zm56.7-29.3a13.16 13.16 0 0 0-5.1-3.8 18.94 18.94 0 0 0-7.5-1.4 19.93 19.93 0 0 0-7.3 1.2 21.25 21.25 0 0 0-5.2 2.8v-20.9h-11.9v61.7h11.9v-31.1a30.27 30.27 0 0 1 4.2-2.8 11.11 11.11 0 0 1 5.5-1.5 6.84 6.84 0 0 1 5.1 2.4c1.5 1.6 2.2 4.2 2.2 7.8v25.1h11.9v-26a32.1 32.1 0 0 0-.9-7.8 17.08 17.08 0 0 0-2.9-5.7zm15.3-4h11.8v43.7H486zm56.9 5.3c-3.7-4.3-8.6-6.4-14.7-6.4a22.51 22.51 0 0 0-8.2 1.5 19.59 19.59 0 0 0-11.4 11.6 26.8 26.8 0 0 0-1.7 9.8 28.67 28.67 0 0 0 1.7 10.2 19.6 19.6 0 0 0 4.7 7.1 18.87 18.87 0 0 0 6.9 4.2 25.37 25.37 0 0 0 8.3 1.4 27.11 27.11 0 0 0 11.5-2.3c3.3-1.5 6.1-4.2 8.6-8l-8.8-5.4c-1.8 2.5-3.6 4.2-5.3 4.9a13.19 13.19 0 0 1-5.7 1.1 10.33 10.33 0 0 1-6.6-2.4c-2-1.6-3.1-4.3-3.4-8h29.9c-.2-8.6-2.1-15.1-5.8-19.3zm-6.3 11.9h-18.3l.1-.7a11.3 11.3 0 0 1 1.2-3.8 10.91 10.91 0 0 1 2.3-2.9 10 10 0 0 1 2.9-1.8 9.6 9.6 0 0 1 3.3-.6 9.35 9.35 0 0 1 5.9 2.3 10.22 10.22 0 0 1 3.2 6.9l.1.6zm47.6-17.1a27.68 27.68 0 0 0-7.8-1.3 21.92 21.92 0 0 0-9.6 2 19.59 19.59 0 0 0-6.8 5.2 21.87 21.87 0 0 0-4.1 7.3 26.29 26.29 0 0 0-1.4 8.3 28.22 28.22 0 0 0 1.3 8.7 21.66 21.66 0 0 0 3.8 7.4 19.29 19.29 0 0 0 6.2 5.1 17.63 17.63 0 0 0 8.4 1.9 13.91 13.91 0 0 0 6.3-1.3 16.27 16.27 0 0 0 4.3-3l.5 3.4H596V319h-11.8zm0 31.2a10.06 10.06 0 0 1-7.7 3.8 9.89 9.89 0 0 1-4.7-1.1 10.24 10.24 0 0 1-3.2-3 13.62 13.62 0 0 1-1.9-4.4 22.42 22.42 0 0 1-.6-5.2 15.94 15.94 0 0 1 .7-4.8 14.09 14.09 0 0 1 2.2-4.2 10.62 10.62 0 0 1 3.7-2.9 12.07 12.07 0 0 1 5.2-1.1 17.39 17.39 0 0 1 6.4 1.3v21.6zm53.8-28.5a13.4 13.4 0 0 0-5.5-3 25.15 25.15 0 0 0-7-1 31.89 31.89 0 0 0-4.2.3 27.8 27.8 0 0 0-4.6 1.1 17.43 17.43 0 0 0-4.5 2.3 16.72 16.72 0 0 0-3.9 3.6l8.1 5.6a13.5 13.5 0 0 1 4.5-3.1 14.14 14.14 0 0 1 3.9-.8 6.21 6.21 0 0 1 4.3 1.6 5.51 5.51 0 0 1 1.8 4.3v1.5c-1.2.1-2.7.3-4.5.4s-3.5.4-5 .7a37.44 37.44 0 0 0-6.2 1.6 19.82 19.82 0 0 0-5.2 2.8 14.38 14.38 0 0 0-3.6 4.2 12.13 12.13 0 0 0-1.4 5.8 12.78 12.78 0 0 0 1.3 5.9 13.35 13.35 0 0 0 3.4 4.4 13.74 13.74 0 0 0 4.9 2.7 18 18 0 0 0 5.7 1 19.26 19.26 0 0 0 6.5-1.1 14.19 14.19 0 0 0 4.9-3.1l.5 3.3h10.9v-28.1a19.17 19.17 0 0 0-1.3-7.6 15 15 0 0 0-3.8-5.3zm-7 29.4a13.65 13.65 0 0 1-3.7 2.3 11.17 11.17 0 0 1-4.4.9 7.42 7.42 0 0 1-4.8-1.3 4.18 4.18 0 0 1-1.6-3.5 6 6 0 0 1 1.5-3.9c1-1.2 2.8-2 5.3-2.5q1.8-.3 3.9-.6a26.62 26.62 0 0 1 3.9-.3v8.9zm90.9-22.6a14 14 0 0 0-3-5.8 12.94 12.94 0 0 0-5.6-3.6 28.52 28.52 0 0 0-16.7-.1 35.94 35.94 0 0 0-6.9 3 14.82 14.82 0 0 0-6-3.3 24.32 24.32 0 0 0-6.4-1 15.81 15.81 0 0 0-6.3 1.3 17.49 17.49 0 0 0-5.2 3.1l-.5-3.3h-10.9v43.7h11.9v-31.1a18.79 18.79 0 0 1 4-2.9 10.3 10.3 0 0 1 5.1-1.4 7.24 7.24 0 0 1 3.5.8 5.56 5.56 0 0 1 2.2 2.1 12.52 12.52 0 0 1 1.2 3.1 22.15 22.15 0 0 1 .4 3.8v25.7h11.8v-26.4a26.61 26.61 0 0 0-.2-3 15 15 0 0 0-.4-2.4c.4-.3.9-.6 1.5-1a15.05 15.05 0 0 1 2.2-1.1 20 20 0 0 1 2.6-1 8.42 8.42 0 0 1 2.7-.4c3.1 0 5.2.9 6.4 2.7a13.18 13.18 0 0 1 1.7 7v25.7h11.8v-26.2a31.49 31.49 0 0 0-.9-8zm-229.9-28a6.93 6.93 0 0 0-5.3 2 6.16 6.16 0 0 0 0 8.7 6.78 6.78 0 0 0 5.3 2 6.93 6.93 0 0 0 5.3-2 6.38 6.38 0 0 0 1.8-4.4 6.15 6.15 0 0 0-1.8-4.3 6.93 6.93 0 0 0-5.3-2zM64.095 123.586l9.051-9.05 9.051 9.05-9.05 9.051zm-18.128.032l9.05-9.051 9.052 9.05-9.051 9.051zm9.053-15.886l9.05-9.05 9.052 9.05-9.051 9.051zm110.825 15.888l9.05-9.051 9.051 9.05-9.05 9.052zm18.191-.034l9.05-9.05 9.052 9.05-9.051 9.051zm-9.111-15.877l9.051-9.051 9.05 9.051-9.05 9.05z"/><path d="M235.1 86.1l-15.6 17.8 6.7 10.6-13.4.2v31.7h-6L184 123.6l-22.9 22.9-30-25.1v-12.8l15.8 13.3 15.9-13.4v-18l-12.2-10.2-11.6 3.5 3.6-13.3L130.2 60h-12.3l-12.5 10.5 3.6 13.3-11.6-3.5-12.2 10.2v18l15.9 13.4 15.8-13.3v12.8l-30 25.1L64 123.6l-22.9 22.9h-6v-31.7l-13.4-.2 6.7-10.6L13 86.1 0 96.9l24.4 60.9 4.9 17.6s59.7-5.3 94.8-5.4c35.1.1 94.8 5.4 94.8 5.4l4.9-17.6 24.4-60.9z" class="a"/><path d="M10.4 225.7l3 3.5 25.2-21.1-17.7-21c-6.8 1-10.5 1.6-10.5 1.6zm211.5 200.9l-13.5-16-25.2 21.1 17.5 20.9a112.87 112.87 0 0 0 21.2-26z" class="c"/></svg>