<svg width="139" height="31" viewBox="0 0 139 31" xmlns="http://www.w3.org/2000/svg"><g fill="none" fill-rule="evenodd"><path d="M46.509.042v14.87L37.874 0a50.09 50.09 0 0 0-8.07 1.32v18.222c0 5.084 3.142 9.435 7.595 11.231V11.675L48.03 30.033c3.632-2.095 6.073-6.009 6.073-10.49V1.32c-2.464-.614-5-1.045-7.594-1.278" fill="#149DCA"/><path d="M124.225 25.696h-10.423V1.38h10.207c7.873 0 14.717 1.003 14.717 12.13 0 11.089-6.67 12.185-14.501 12.185m.966-17.523h-3.768v10.723h3.812c3.85 0 5.696-.517 5.696-5.386 0-4.972-1.936-5.337-5.74-5.337M0 25.696v-7.703L13.34 8.66H.11V1.381h24.205v7.7l-13.339 9.335h13.451v7.28zm100.106-16.95v16.948h-7.837V8.746h-8.273V1.379h24.386v7.367zm-20.264 9.059c0 6.997-5.914 8.324-12.482 8.324-3.055 0-6.767-.725-7.995-1.057v-6.421c.992.291 5.174 1.282 7.963 1.282 2.25 0 3.839-.332 3.839-1.44 0-1.092-1.697-1.461-4.04-2.149a76.39 76.39 0 0 1-1.57-.476c-3.171-.991-6.487-2.685-6.487-7.093C59.07 2.42 64.7.943 71.184.943c3.164 0 6.288.745 7.392 1.097v6.186c-1.186-.367-4.655-1.243-7.292-1.24-1.941.004-3.333.26-3.543 1.173a.788.788 0 0 0-.01.338c.156.794 1.52 1.14 3.268 1.616.257.07 1.277.356 1.56.435 3.389.935 7.283 2.511 7.283 7.257" fill="#AAA"/></g></svg>